<svg width="27" height="39" viewBox="0 0 27 39" fill="none" xmlns="http://www.w3.org/2000/svg">
<path d="M22.5445 4.28287L22.5448 4.2831C24.7902 6.5257 26.0719 9.78073 26.2947 13.1462C26.5175 16.5114 25.6781 19.9347 23.7491 22.5063L23.7434 22.5139L23.738 22.5217L13.4171 37.428L3.07916 22.4987L3.07374 22.4908L3.06802 22.4832C1.14732 19.9236 0.311681 16.5062 0.535368 13.1435C0.759071 9.78056 2.03861 6.52535 4.27976 4.28277C5.47901 3.0835 6.90274 2.13219 8.46964 1.48314C10.0366 0.834071 11.716 0.5 13.4121 0.5C15.1082 0.5 16.7876 0.834071 18.3546 1.48314C19.9215 2.13221 21.3453 3.08356 22.5445 4.28287ZM10.54 17.7783C11.428 18.3716 12.4721 18.6883 13.5401 18.6883C14.9723 18.6883 16.3458 18.1194 17.3585 17.1067C18.3712 16.094 18.9401 14.7205 18.9401 13.2883C18.9401 12.2203 18.6234 11.1763 18.03 10.2882C17.4367 9.40022 16.5933 8.70809 15.6066 8.29938C14.6199 7.89066 13.5341 7.78372 12.4866 7.99208C11.4391 8.20045 10.4769 8.71474 9.72172 9.46995C8.96651 10.2252 8.45222 11.1873 8.24385 12.2348C8.03549 13.2823 8.14243 14.3681 8.55115 15.3548C8.95986 16.3415 9.65199 17.1849 10.54 17.7783Z" fill="#2B2B2B" stroke="white"/>
</svg>
